<?xml version="1.0" encoding="UTF-8"?>
<svg xmlns="http://www.w3.org/2000/svg" xmlns:xlink="http://www.w3.org/1999/xlink" width="512px" height="512px" viewBox="0 0 512 512" version="1.1">
<g id="surface1">
<path style=" stroke:none;fill-rule:nonzero;fill:rgb(100%,100%,100%);fill-opacity:1;" d="M 311.5 17 C 312.46875 17.214844 313.441406 17.425781 314.410156 17.640625 C 319.296875 18.738281 324.039062 20.078125 328.765625 21.734375 C 330.511719 22.347656 332.277344 22.886719 334.050781 23.417969 C 337.742188 24.546875 341.34375 25.882812 344.9375 27.28125 C 345.273438 27.410156 345.609375 27.539062 345.953125 27.675781 C 352.292969 30.140625 358.441406 32.90625 364.5 36 C 365.140625 36.328125 365.140625 36.328125 365.796875 36.660156 C 373.757812 40.738281 381.472656 45.171875 389 50 C 389.308594 50.195312 389.613281 50.394531 389.929688 50.597656 C 396.929688 55.113281 403.714844 60.023438 410.140625 65.320312 C 410.984375 66.035156 410.984375 66.035156 412 66.5 C 412 66.828125 412 67.160156 412 67.5 C 412.441406 67.703125 412.441406 67.703125 412.894531 67.914062 C 413.96875 68.484375 414.78125 69.085938 415.695312 69.878906 C 416.007812 70.148438 416.320312 70.417969 416.640625 70.695312 C 416.964844 70.984375 417.289062 71.269531 417.625 71.5625 C 417.957031 71.851562 418.292969 72.144531 418.636719 72.445312 C 420.773438 74.320312 422.832031 76.246094 424.789062 78.304688 C 425.484375 79.054688 425.484375 79.054688 426.5 79.5 C 426.5 79.828125 426.5 80.160156 426.5 80.5 C 426.980469 80.699219 426.980469 80.699219 427.46875 80.90625 C 428.5 81.5 428.5 81.5 429 83 C 429.328125 83.164062 429.660156 83.328125 430 83.5 C 430.328125 83.664062 430.660156 83.828125 431 84 C 431.164062 84.496094 431.328125 84.988281 431.5 85.5 C 431.828125 85.5 432.160156 85.5 432.5 85.5 C 433.152344 86.148438 433.152344 86.148438 433.9375 87.09375 C 435.835938 89.332031 437.820312 91.484375 439.824219 93.628906 C 444.5 98.65625 444.5 98.65625 444.5 100 C 444.828125 100 445.160156 100 445.5 100 C 446.140625 100.730469 446.140625 100.730469 446.863281 101.742188 C 447.128906 102.109375 447.394531 102.476562 447.667969 102.851562 C 448.078125 103.421875 448.078125 103.421875 448.5 104 C 449.023438 104.683594 449.546875 105.363281 450.074219 106.039062 C 453.214844 110.097656 456.203125 114.191406 459 118.5 C 459.390625 119.078125 459.785156 119.660156 460.179688 120.234375 C 463.101562 124.539062 465.808594 128.9375 468.398438 133.449219 C 468.980469 134.464844 469.566406 135.472656 470.15625 136.484375 C 472.863281 141.164062 475.21875 145.976562 477.484375 150.886719 C 477.953125 151.898438 478.433594 152.910156 478.921875 153.917969 C 481.167969 158.613281 483.136719 163.402344 485.019531 168.257812 C 485.324219 169.046875 485.632812 169.835938 485.945312 170.625 C 505.839844 220.914062 505.925781 279.578125 482.265625 350.417969 C 479.390625 357.039062 476.394531 363.628906 473 370 C 472.820312 370.339844 472.640625 370.679688 472.453125 371.03125 C 467.542969 380.203125 462.019531 389.015625 456 397.5 C 455.644531 398.003906 455.292969 398.503906 454.929688 399.019531 C 452.957031 401.777344 450.875 404.414062 448.710938 407.015625 C 447.585938 408.394531 446.492188 409.792969 445.402344 411.203125 C 443.484375 413.679688 441.582031 416.054688 439.304688 418.21875 C 437.375 420.097656 435.675781 422.210938 433.925781 424.253906 C 433.570312 424.664062 433.210938 425.078125 432.84375 425.5 C 432.515625 425.882812 432.1875 426.261719 431.851562 426.65625 C 431 427.5 431 427.5 430 427.5 C 429.875 427.789062 429.753906 428.078125 429.625 428.375 C 428.910156 429.664062 428.109375 430.53125 427 431.5 C 426.671875 431.5 426.339844 431.5 426 431.5 C 426 431.828125 426 432.160156 426 432.5 C 425.671875 432.5 425.339844 432.5 425 432.5 C 425 432.828125 425 433.160156 425 433.5 C 424.300781 434.203125 424.300781 434.203125 423.3125 435.03125 C 421.710938 436.390625 420.144531 437.773438 418.59375 439.1875 C 415.96875 441.554688 413.25 443.78125 410.5 446 C 409.9375 446.460938 409.378906 446.925781 408.820312 447.390625 C 404.230469 451.152344 399.429688 454.515625 394.503906 457.820312 C 393.328125 458.617188 392.179688 459.445312 391.03125 460.28125 C 384.226562 465.0625 376.800781 469.039062 369.5 473 C 369.125 473.203125 368.75 473.410156 368.363281 473.621094 C 361.074219 477.589844 361.074219 477.589844 357.203125 479.03125 C 355.800781 479.578125 354.457031 480.222656 353.09375 480.875 C 348.890625 482.835938 344.558594 484.441406 340.210938 486.050781 C 339.183594 486.429688 338.160156 486.816406 337.140625 487.203125 C 323.496094 492.261719 308.851562 495.730469 294.5 498 C 293.976562 498.085938 293.976562 498.085938 293.4375 498.171875 C 281.101562 500.140625 268.820312 500.742188 256.34375 500.75 C 255.269531 500.75 254.195312 500.753906 253.117188 500.757812 C 240.105469 500.785156 227.351562 499.496094 214.5 497.5 C 213.898438 497.40625 213.296875 497.3125 212.679688 497.21875 C 207.363281 496.363281 202.144531 495.078125 196.914062 493.824219 C 196.179688 493.652344 195.449219 493.476562 194.71875 493.304688 C 190.769531 492.375 186.90625 491.382812 183.113281 489.925781 C 181.789062 489.417969 180.453125 489.015625 179.09375 488.625 C 166.164062 484.710938 153.941406 479.109375 141.933594 472.976562 C 141.042969 472.523438 140.152344 472.074219 139.257812 471.625 C 128.3125 465.980469 117.988281 458.988281 108.199219 451.527344 C 106.75 450.425781 105.308594 449.363281 103.769531 448.390625 C 103.351562 448.09375 102.933594 447.800781 102.5 447.5 C 102.5 447.171875 102.5 446.839844 102.5 446.5 C 102.238281 446.394531 101.980469 446.289062 101.710938 446.175781 C 99.992188 445.214844 98.601562 443.949219 97.125 442.65625 C 96.8125 442.386719 96.5 442.113281 96.179688 441.835938 C 95.285156 441.058594 94.390625 440.28125 93.5 439.5 C 93.101562 439.152344 92.703125 438.804688 92.292969 438.449219 C 91.664062 437.898438 91.035156 437.347656 90.410156 436.796875 C 89.734375 436.207031 89.054688 435.625 88.371094 435.046875 C 88 434.730469 87.632812 434.417969 87.25 434.09375 C 86.914062 433.8125 86.578125 433.53125 86.234375 433.242188 C 85.5 432.5 85.5 432.5 85.5 431.5 C 85.230469 431.398438 84.964844 431.292969 84.6875 431.1875 C 83.039062 430.234375 81.703125 428.976562 80.5 427.5 C 80.5 427.171875 80.5 426.839844 80.5 426.5 C 80.003906 426.335938 79.511719 426.171875 79 426 C 78.175781 425.164062 78.175781 425.164062 77.3125 424.125 C 76.261719 422.878906 75.210938 421.6875 74.03125 420.5625 C 73 419.5 73 419.5 73 418.5 C 72.671875 418.5 72.339844 418.5 72 418.5 C 71.3125 417.746094 70.664062 416.957031 70.03125 416.15625 C 68.566406 414.320312 67.089844 412.515625 65.546875 410.746094 C 61.90625 406.542969 58.703125 402.042969 55.5 397.5 C 55.101562 396.9375 54.699219 396.375 54.296875 395.816406 C 49.257812 388.65625 44.648438 381.207031 40.5 373.5 C 40.269531 373.070312 40.035156 372.640625 39.796875 372.195312 C 35.21875 363.664062 31.140625 354.972656 27.5 346 C 27.273438 345.449219 27.050781 344.902344 26.816406 344.335938 C 25.066406 340.03125 23.484375 335.707031 22.0625 331.28125 C 21.957031 330.953125 21.851562 330.628906 21.742188 330.289062 C 16.554688 314.078125 13.136719 297.449219 11.5 280.5 C 11.460938 280.089844 11.417969 279.683594 11.375 279.261719 C 10.617188 271.503906 10.335938 263.824219 10.375 256.03125 C 10.375 255.484375 10.378906 254.9375 10.378906 254.375 C 10.402344 246.535156 10.585938 238.792969 11.5 231 C 11.609375 229.953125 11.71875 228.902344 11.828125 227.851562 C 12.511719 221.546875 13.492188 215.34375 14.769531 209.132812 C 14.976562 208.121094 15.167969 207.101562 15.355469 206.085938 C 18.625 188.621094 24.347656 171.277344 31.921875 155.226562 C 32.53125 153.929688 33.132812 152.632812 33.734375 151.332031 C 36.09375 146.265625 38.613281 141.347656 41.425781 136.515625 C 42.113281 135.304688 42.769531 134.078125 43.425781 132.851562 C 44.941406 130.070312 46.578125 127.386719 48.28125 124.71875 C 48.734375 124.007812 48.734375 124.007812 49.199219 123.28125 C 52.132812 118.726562 55.253906 114.335938 58.5 110 C 58.90625 109.457031 58.90625 109.457031 59.320312 108.902344 C 62.636719 104.457031 66.070312 100.152344 69.722656 95.976562 C 70.542969 95.027344 71.34375 94.054688 72.109375 93.054688 C 72.402344 92.707031 72.695312 92.359375 73 92 C 73.328125 92 73.660156 92 74 92 C 74.125 91.710938 74.246094 91.421875 74.375 91.125 C 75.09375 89.832031 75.929688 88.988281 77 87.96875 C 78.1875 86.832031 79.082031 85.878906 80 84.5 C 80.328125 84.5 80.660156 84.5 81 84.5 C 81.132812 84.199219 81.269531 83.902344 81.40625 83.59375 C 82 82.5 82.546875 81.792969 83.5 81 C 83.828125 81 84.160156 81 84.5 81 C 84.664062 80.503906 84.828125 80.011719 85 79.5 C 85.855469 78.65625 85.855469 78.65625 86.90625 77.78125 C 88.054688 76.808594 89.136719 75.859375 90.1875 74.78125 C 91 74 91 74 92 74 C 92 73.671875 92 73.339844 92 73 C 92.808594 72.273438 93.648438 71.578125 94.5 70.90625 C 96.636719 69.203125 98.707031 67.453125 100.722656 65.609375 C 101.5 65 101.5 65 102.5 65 C 102.5 64.671875 102.5 64.339844 102.5 64 C 103.609375 63.136719 104.71875 62.328125 105.875 61.53125 C 106.507812 61.089844 107.140625 60.648438 107.773438 60.207031 C 108.074219 59.996094 108.375 59.789062 108.683594 59.578125 C 109.355469 59.101562 110.011719 58.597656 110.664062 58.09375 C 111.5 57.5 111.5 57.5 112.5 57.5 C 112.5 57.171875 112.5 56.839844 112.5 56.5 C 113.621094 55.671875 114.738281 54.910156 115.90625 54.15625 C 116.25 53.933594 116.59375 53.707031 116.945312 53.476562 C 117.960938 52.8125 118.980469 52.15625 120 51.5 C 120.480469 51.1875 120.964844 50.875 121.460938 50.550781 C 137.84375 39.992188 156.03125 29.757812 174.839844 24.335938 C 177.140625 23.667969 179.421875 22.914062 181.660156 22.054688 C 185.550781 20.570312 189.519531 19.519531 193.5625 18.53125 C 193.914062 18.445312 194.265625 18.359375 194.625 18.269531 C 210.433594 14.382812 226.386719 11.71875 242.65625 10.84375 C 243.203125 10.8125 243.203125 10.8125 243.761719 10.785156 C 266.539062 9.601562 289.292969 11.933594 311.5 17 Z M 311.5 17 "/>
<path style=" stroke:none;fill-rule:nonzero;fill:rgb(0%,0%,0%);fill-opacity:1;" d="M 87.40625 105.6875 C 89.808594 106.160156 90.652344 107.542969 92 109.5 C 93.605469 111.964844 95.011719 114.519531 96.375 117.125 C 102.085938 127.640625 110.507812 136.96875 122.265625 140.535156 C 123.300781 140.789062 124.339844 141.027344 125.382812 141.246094 C 126.5 141.5 126.5 141.5 127 142 C 135.414062 143.382812 145.601562 144.511719 153.5 141 C 154.789062 140.582031 156.074219 140.183594 157.375 139.8125 C 157.738281 139.707031 158.105469 139.601562 158.480469 139.492188 C 162.429688 138.359375 166.40625 137.324219 170.382812 136.289062 C 172.039062 135.859375 173.691406 135.414062 175.34375 134.96875 C 179.21875 133.933594 183.105469 132.953125 187 132 C 187.851562 131.789062 187.851562 131.789062 188.71875 131.578125 C 191.832031 130.832031 194.929688 130.253906 198.09375 129.796875 C 200.003906 129.5 201.894531 129.152344 203.792969 128.792969 C 240.015625 121.984375 278.34375 122.152344 314.472656 129.40625 C 316.484375 129.8125 318.492188 130.167969 320.515625 130.492188 C 323.515625 130.980469 326.453125 131.648438 329.40625 132.375 C 330.214844 132.570312 330.214844 132.570312 331.039062 132.773438 C 332.691406 133.179688 334.347656 133.589844 336 134 C 336.5 134.125 337 134.246094 337.515625 134.375 C 342.824219 135.695312 348.054688 137.140625 353.25 138.84375 C 361.371094 141.496094 369.242188 142.589844 377.78125 142.59375 C 378.3125 142.601562 378.839844 142.605469 379.386719 142.613281 C 382.726562 142.617188 385.753906 142.253906 389 141.5 C 389.574219 141.398438 390.148438 141.300781 390.738281 141.195312 C 398.175781 139.824219 404.230469 136.851562 410 132 C 410.40625 131.671875 410.8125 131.339844 411.230469 131 C 415.601562 127.304688 418.660156 122.917969 421.5 118 C 422.417969 116.433594 423.347656 114.871094 424.28125 113.3125 C 424.625 112.722656 424.625 112.722656 424.976562 112.121094 C 426.558594 109.492188 427.972656 107.507812 431 106.5 C 432.78125 107.183594 433.671875 108.082031 434.5625 109.71875 C 438.28125 118.136719 437.773438 127.746094 435.5 136.5 C 435.367188 137.066406 435.234375 137.636719 435.097656 138.21875 C 432.796875 147.527344 429.40625 156.492188 425 165 C 424.816406 165.355469 424.632812 165.710938 424.445312 166.078125 C 421.90625 170.941406 418.96875 175.257812 415.5 179.5 C 415.109375 180.023438 415.109375 180.023438 414.710938 180.554688 C 411.042969 185.308594 404.136719 188.785156 398.277344 189.859375 C 388.253906 190.976562 380.523438 188.070312 372.71875 182 C 372.234375 181.609375 371.75 181.214844 371.25 180.8125 C 370.628906 180.410156 370.628906 180.410156 370 180 C 367.835938 180.722656 367.339844 182.019531 366.238281 183.953125 C 365.027344 186.488281 364.363281 189.105469 363.761719 191.835938 C 363.578125 192.644531 363.390625 193.449219 363.199219 194.253906 C 357.542969 217.765625 358.316406 243.484375 359.453125 267.484375 C 359.5 268.527344 359.542969 269.570312 359.582031 270.617188 C 360.324219 289.582031 361.910156 308.605469 364.761719 327.375 C 365.109375 329.742188 365.414062 332.113281 365.722656 334.488281 C 367.242188 346.179688 368.851562 357.867188 371.273438 369.410156 C 374.375 384.292969 374.375 384.292969 371.757812 388.679688 C 370.183594 390.382812 368.121094 391.15625 366 392 C 365.636719 392.15625 365.273438 392.308594 364.902344 392.46875 C 361.898438 393.726562 358.925781 394.609375 355.75 395.3125 C 355.324219 395.414062 354.898438 395.515625 354.457031 395.621094 C 346.578125 397.402344 338.679688 397.664062 330.636719 397.628906 C 329.085938 397.625 327.535156 397.628906 325.984375 397.636719 C 320.871094 397.640625 316.03125 397.457031 311 396.5 C 310.28125 396.429688 309.5625 396.363281 308.84375 396.3125 C 298.859375 395.265625 288.414062 391.34375 281 384.5 C 279.890625 382.449219 279.996094 381.265625 280.617188 379.046875 C 280.847656 378.195312 280.847656 378.195312 281.082031 377.324219 C 281.25 376.730469 281.421875 376.140625 281.59375 375.53125 C 282.707031 371.507812 283.75 367.5 284.601562 363.414062 C 284.96875 361.644531 285.351562 359.875 285.742188 358.109375 C 287.945312 348.054688 290.019531 337.992188 291.839844 327.863281 C 291.980469 327.097656 292.117188 326.328125 292.257812 325.5625 C 292.355469 325.015625 292.355469 325.015625 292.453125 324.457031 C 292.933594 321.8125 293.476562 319.1875 294.0625 316.5625 C 298.042969 298.476562 299.636719 279.792969 301.472656 261.398438 C 301.519531 260.945312 301.566406 260.488281 301.613281 260.019531 C 301.746094 258.679688 301.875 257.339844 302 256 C 302.046875 255.542969 302.09375 255.082031 302.140625 254.609375 C 302.53125 250.417969 302.597656 246.238281 302.617188 242.03125 C 302.621094 241.65625 302.625 241.28125 302.625 240.898438 C 302.636719 238.910156 302.644531 236.921875 302.648438 234.933594 C 302.652344 233.324219 302.664062 231.71875 302.679688 230.109375 C 302.777344 219.863281 302.339844 210.109375 300.5 200 C 300.414062 199.523438 300.332031 199.042969 300.242188 198.550781 C 298.679688 189.800781 296.570312 182.03125 288.980469 176.652344 C 278.316406 169.554688 264.910156 168.097656 252.488281 170.296875 C 242.171875 172.398438 233.367188 177.230469 227.371094 186.039062 C 207.484375 219.394531 219.269531 280.746094 226.417969 321.261719 C 226.773438 323.226562 227.121094 325.1875 227.457031 327.15625 C 228.628906 334.035156 229.917969 340.882812 231.3125 347.71875 C 231.417969 348.238281 231.523438 348.761719 231.632812 349.296875 C 233.570312 358.8125 235.835938 368.226562 238.265625 377.632812 C 240.632812 386.816406 240.632812 386.816406 238.65625 390.625 C 236.398438 393.3125 233.632812 394.476562 230.375 395.5 C 229.773438 395.691406 229.773438 395.691406 229.15625 395.886719 C 223.5625 397.546875 217.769531 398.242188 212 399 C 211.046875 399.140625 211.046875 399.140625 210.070312 399.285156 C 192.621094 401.410156 170.332031 401.453125 155 392 C 155 391.671875 155 391.339844 155 391 C 154.714844 390.882812 154.433594 390.769531 154.140625 390.652344 C 152.707031 389.832031 151.835938 388.832031 150.75 387.59375 C 150.183594 386.953125 150.183594 386.953125 149.609375 386.304688 C 149.242188 385.871094 148.878906 385.441406 148.5 385 C 148.128906 384.574219 147.753906 384.152344 147.371094 383.714844 C 145.578125 381.210938 146.441406 378.117188 146.875 375.21875 C 147.375 372.40625 148.082031 369.660156 148.800781 366.898438 C 149.382812 364.625 149.730469 362.441406 149.898438 360.109375 C 150.039062 358.597656 150.386719 357.167969 150.734375 355.695312 C 151.734375 351.226562 152.269531 346.660156 152.851562 342.125 C 153.011719 340.894531 153.179688 339.667969 153.34375 338.4375 C 154.609375 328.976562 155.878906 319.492188 156.378906 309.953125 C 156.523438 307.648438 156.742188 305.359375 156.96875 303.0625 C 157.957031 292.890625 158.625 282.765625 158.828125 272.546875 C 158.835938 272.171875 158.84375 271.796875 158.855469 271.410156 C 158.875 270.390625 158.894531 269.367188 158.914062 268.34375 C 159 266.5 159 266.5 159.25 264.886719 C 159.515625 262.894531 159.570312 260.945312 159.566406 258.941406 C 159.566406 258.550781 159.566406 258.160156 159.566406 257.757812 C 159.570312 256.480469 159.566406 255.199219 159.566406 253.921875 C 159.566406 253.027344 159.566406 252.132812 159.566406 251.238281 C 159.570312 249.367188 159.566406 247.496094 159.566406 245.625 C 159.5625 243.230469 159.5625 240.839844 159.566406 238.449219 C 159.570312 236.601562 159.566406 234.753906 159.566406 232.910156 C 159.566406 232.027344 159.566406 231.144531 159.566406 230.261719 C 159.570312 229.027344 159.566406 227.792969 159.566406 226.558594 C 159.566406 226.019531 159.566406 226.019531 159.566406 225.464844 C 159.558594 223.269531 159.34375 221.167969 159 219 C 158.949219 218.152344 158.914062 217.304688 158.894531 216.453125 C 158.644531 207.539062 157.890625 198.738281 156.03125 190 C 155.957031 189.652344 155.886719 189.300781 155.8125 188.941406 C 155.226562 186.40625 154.226562 184.292969 153 182 C 150.964844 182.730469 149.28125 183.730469 147.46875 184.90625 C 143.113281 187.644531 138.730469 189.878906 133.5 190 C 133.039062 190.019531 132.574219 190.039062 132.101562 190.058594 C 128.464844 190.144531 125.058594 189.710938 121.5 189 C 120.898438 188.890625 120.898438 188.890625 120.28125 188.78125 C 117.484375 188.238281 115.035156 187.289062 112.5 186 C 111.898438 185.703125 111.898438 185.703125 111.28125 185.398438 C 105.691406 182.367188 102.15625 177.378906 99 172 C 98.699219 171.527344 98.398438 171.058594 98.089844 170.570312 C 92.667969 161.738281 89.246094 151.570312 86.34375 141.667969 C 86.039062 140.625 85.71875 139.589844 85.398438 138.554688 C 82.949219 130.21875 79.574219 116.414062 83.914062 108.296875 C 84.984375 106.839844 85.601562 106.089844 87.40625 105.6875 Z M 87.40625 105.6875 "/>
<path style=" stroke:none;fill-rule:nonzero;fill:rgb(0%,0%,0%);fill-opacity:1;" d="M 311.5 17 C 312.46875 17.214844 313.441406 17.425781 314.410156 17.640625 C 319.296875 18.738281 324.039062 20.078125 328.765625 21.734375 C 330.511719 22.347656 332.277344 22.886719 334.050781 23.417969 C 337.742188 24.546875 341.34375 25.882812 344.9375 27.28125 C 345.273438 27.410156 345.609375 27.539062 345.953125 27.675781 C 352.292969 30.140625 358.441406 32.90625 364.5 36 C 365.140625 36.328125 365.140625 36.328125 365.796875 36.660156 C 373.757812 40.738281 381.472656 45.171875 389 50 C 389.308594 50.195312 389.613281 50.394531 389.929688 50.597656 C 396.929688 55.113281 403.714844 60.023438 410.140625 65.320312 C 410.984375 66.035156 410.984375 66.035156 412 66.5 C 412 66.828125 412 67.160156 412 67.5 C 412.441406 67.703125 412.441406 67.703125 412.894531 67.914062 C 413.96875 68.484375 414.78125 69.085938 415.695312 69.878906 C 416.007812 70.148438 416.320312 70.417969 416.640625 70.695312 C 416.964844 70.984375 417.289062 71.269531 417.625 71.5625 C 417.957031 71.851562 418.292969 72.144531 418.636719 72.445312 C 420.773438 74.320312 422.832031 76.246094 424.789062 78.304688 C 425.484375 79.054688 425.484375 79.054688 426.5 79.5 C 426.5 79.828125 426.5 80.160156 426.5 80.5 C 426.980469 80.699219 426.980469 80.699219 427.46875 80.90625 C 428.5 81.5 428.5 81.5 429 83 C 429.328125 83.164062 429.660156 83.328125 430 83.5 C 430.328125 83.664062 430.660156 83.828125 431 84 C 431.164062 84.496094 431.328125 84.988281 431.5 85.5 C 431.828125 85.5 432.160156 85.5 432.5 85.5 C 433.152344 86.148438 433.152344 86.148438 433.9375 87.09375 C 435.835938 89.332031 437.820312 91.484375 439.824219 93.628906 C 444.5 98.65625 444.5 98.65625 444.5 100 C 444.828125 100 445.160156 100 445.5 100 C 446.140625 100.730469 446.140625 100.730469 446.863281 101.742188 C 447.128906 102.109375 447.394531 102.476562 447.667969 102.851562 C 448.078125 103.421875 448.078125 103.421875 448.5 104 C 449.023438 104.683594 449.546875 105.363281 450.074219 106.039062 C 453.214844 110.097656 456.203125 114.191406 459 118.5 C 459.390625 119.078125 459.785156 119.660156 460.179688 120.234375 C 463.101562 124.539062 465.808594 128.9375 468.398438 133.449219 C 468.980469 134.464844 469.566406 135.472656 470.15625 136.484375 C 472.863281 141.164062 475.21875 145.976562 477.484375 150.886719 C 477.953125 151.898438 478.433594 152.910156 478.921875 153.917969 C 481.167969 158.613281 483.136719 163.402344 485.019531 168.257812 C 485.324219 169.046875 485.632812 169.835938 485.945312 170.625 C 505.839844 220.914062 505.925781 279.578125 482.265625 350.417969 C 479.390625 357.039062 476.394531 363.628906 473 370 C 472.820312 370.339844 472.640625 370.679688 472.453125 371.03125 C 467.542969 380.203125 462.019531 389.015625 456 397.5 C 455.644531 398.003906 455.292969 398.503906 454.929688 399.019531 C 452.957031 401.777344 450.875 404.414062 448.710938 407.015625 C 447.585938 408.394531 446.492188 409.792969 445.402344 411.203125 C 443.484375 413.679688 441.582031 416.054688 439.304688 418.21875 C 437.375 420.097656 435.675781 422.210938 433.925781 424.253906 C 433.570312 424.664062 433.210938 425.078125 432.84375 425.5 C 432.515625 425.882812 432.1875 426.261719 431.851562 426.65625 C 431 427.5 431 427.5 430 427.5 C 429.875 427.789062 429.753906 428.078125 429.625 428.375 C 428.910156 429.664062 428.109375 430.53125 427 431.5 C 426.671875 431.5 426.339844 431.5 426 431.5 C 426 431.828125 426 432.160156 426 432.5 C 425.671875 432.5 425.339844 432.5 425 432.5 C 425 432.828125 425 433.160156 425 433.5 C 424.300781 434.203125 424.300781 434.203125 423.3125 435.03125 C 421.710938 436.390625 420.144531 437.773438 418.59375 439.1875 C 415.96875 441.554688 413.25 443.78125 410.5 446 C 409.9375 446.460938 409.378906 446.925781 408.820312 447.390625 C 404.230469 451.152344 399.429688 454.515625 394.503906 457.820312 C 393.328125 458.617188 392.179688 459.445312 391.03125 460.28125 C 384.226562 465.0625 376.800781 469.039062 369.5 473 C 369.125 473.203125 368.75 473.410156 368.363281 473.621094 C 361.074219 477.589844 361.074219 477.589844 357.203125 479.03125 C 355.800781 479.578125 354.457031 480.222656 353.09375 480.875 C 348.890625 482.835938 344.558594 484.441406 340.210938 486.050781 C 339.183594 486.429688 338.160156 486.816406 337.140625 487.203125 C 323.496094 492.261719 308.851562 495.730469 294.5 498 C 293.976562 498.085938 293.976562 498.085938 293.4375 498.171875 C 281.101562 500.140625 268.820312 500.742188 256.34375 500.75 C 255.269531 500.75 254.195312 500.753906 253.117188 500.757812 C 240.105469 500.785156 227.351562 499.496094 214.5 497.5 C 213.898438 497.40625 213.296875 497.3125 212.679688 497.21875 C 207.363281 496.363281 202.144531 495.078125 196.914062 493.824219 C 196.179688 493.652344 195.449219 493.476562 194.71875 493.304688 C 190.769531 492.375 186.90625 491.382812 183.113281 489.925781 C 181.789062 489.417969 180.453125 489.015625 179.09375 488.625 C 166.164062 484.710938 153.941406 479.109375 141.933594 472.976562 C 141.042969 472.523438 140.152344 472.074219 139.257812 471.625 C 128.3125 465.980469 117.988281 458.988281 108.199219 451.527344 C 106.75 450.425781 105.308594 449.363281 103.769531 448.390625 C 103.351562 448.09375 102.933594 447.800781 102.5 447.5 C 102.5 447.171875 102.5 446.839844 102.5 446.5 C 102.238281 446.394531 101.980469 446.289062 101.710938 446.175781 C 99.992188 445.214844 98.601562 443.949219 97.125 442.65625 C 96.8125 442.386719 96.5 442.113281 96.179688 441.835938 C 95.285156 441.058594 94.390625 440.28125 93.5 439.5 C 93.101562 439.152344 92.703125 438.804688 92.292969 438.449219 C 91.664062 437.898438 91.035156 437.347656 90.410156 436.796875 C 89.734375 436.207031 89.054688 435.625 88.371094 435.046875 C 88 434.730469 87.632812 434.417969 87.25 434.09375 C 86.914062 433.8125 86.578125 433.53125 86.234375 433.242188 C 85.5 432.5 85.5 432.5 85.5 431.5 C 85.230469 431.398438 84.964844 431.292969 84.6875 431.1875 C 83.039062 430.234375 81.703125 428.976562 80.5 427.5 C 80.5 427.171875 80.5 426.839844 80.5 426.5 C 80.003906 426.335938 79.511719 426.171875 79 426 C 78.175781 425.164062 78.175781 425.164062 77.3125 424.125 C 76.261719 422.878906 75.210938 421.6875 74.03125 420.5625 C 73 419.5 73 419.5 73 418.5 C 72.671875 418.5 72.339844 418.5 72 418.5 C 71.3125 417.746094 70.664062 416.957031 70.03125 416.15625 C 68.566406 414.320312 67.089844 412.515625 65.546875 410.746094 C 61.90625 406.542969 58.703125 402.042969 55.5 397.5 C 55.101562 396.9375 54.699219 396.375 54.296875 395.816406 C 49.257812 388.65625 44.648438 381.207031 40.5 373.5 C 40.269531 373.070312 40.035156 372.640625 39.796875 372.195312 C 35.21875 363.664062 31.140625 354.972656 27.5 346 C 27.273438 345.449219 27.050781 344.902344 26.816406 344.335938 C 25.066406 340.03125 23.484375 335.707031 22.0625 331.28125 C 21.957031 330.953125 21.851562 330.628906 21.742188 330.289062 C 16.554688 314.078125 13.136719 297.449219 11.5 280.5 C 11.460938 280.089844 11.417969 279.683594 11.375 279.261719 C 10.617188 271.503906 10.335938 263.824219 10.375 256.03125 C 10.375 255.484375 10.378906 254.9375 10.378906 254.375 C 10.402344 246.535156 10.585938 238.792969 11.5 231 C 11.609375 229.953125 11.71875 228.902344 11.828125 227.851562 C 12.511719 221.546875 13.492188 215.34375 14.769531 209.132812 C 14.976562 208.121094 15.167969 207.101562 15.355469 206.085938 C 18.625 188.621094 24.347656 171.277344 31.921875 155.226562 C 32.53125 153.929688 33.132812 152.632812 33.734375 151.332031 C 36.09375 146.265625 38.613281 141.347656 41.425781 136.515625 C 42.113281 135.304688 42.769531 134.078125 43.425781 132.851562 C 44.941406 130.070312 46.578125 127.386719 48.28125 124.71875 C 48.734375 124.007812 48.734375 124.007812 49.199219 123.28125 C 52.132812 118.726562 55.253906 114.335938 58.5 110 C 58.90625 109.457031 58.90625 109.457031 59.320312 108.902344 C 62.636719 104.457031 66.070312 100.152344 69.722656 95.976562 C 70.542969 95.027344 71.34375 94.054688 72.109375 93.054688 C 72.402344 92.707031 72.695312 92.359375 73 92 C 73.328125 92 73.660156 92 74 92 C 74.125 91.710938 74.246094 91.421875 74.375 91.125 C 75.09375 89.832031 75.929688 88.988281 77 87.96875 C 78.1875 86.832031 79.082031 85.878906 80 84.5 C 80.328125 84.5 80.660156 84.5 81 84.5 C 81.132812 84.199219 81.269531 83.902344 81.40625 83.59375 C 82 82.5 82.546875 81.792969 83.5 81 C 83.828125 81 84.160156 81 84.5 81 C 84.664062 80.503906 84.828125 80.011719 85 79.5 C 85.855469 78.65625 85.855469 78.65625 86.90625 77.78125 C 88.054688 76.808594 89.136719 75.859375 90.1875 74.78125 C 91 74 91 74 92 74 C 92 73.671875 92 73.339844 92 73 C 92.808594 72.273438 93.648438 71.578125 94.5 70.90625 C 96.636719 69.203125 98.707031 67.453125 100.722656 65.609375 C 101.5 65 101.5 65 102.5 65 C 102.5 64.671875 102.5 64.339844 102.5 64 C 103.609375 63.136719 104.71875 62.328125 105.875 61.53125 C 106.507812 61.089844 107.140625 60.648438 107.773438 60.207031 C 108.074219 59.996094 108.375 59.789062 108.683594 59.578125 C 109.355469 59.101562 110.011719 58.597656 110.664062 58.09375 C 111.5 57.5 111.5 57.5 112.5 57.5 C 112.5 57.171875 112.5 56.839844 112.5 56.5 C 113.621094 55.671875 114.738281 54.910156 115.90625 54.15625 C 116.25 53.933594 116.59375 53.707031 116.945312 53.476562 C 117.960938 52.8125 118.980469 52.15625 120 51.5 C 120.480469 51.1875 120.964844 50.875 121.460938 50.550781 C 137.84375 39.992188 156.03125 29.757812 174.839844 24.335938 C 177.140625 23.667969 179.421875 22.914062 181.660156 22.054688 C 185.550781 20.570312 189.519531 19.519531 193.5625 18.53125 C 193.914062 18.445312 194.265625 18.359375 194.625 18.269531 C 210.433594 14.382812 226.386719 11.71875 242.65625 10.84375 C 243.203125 10.8125 243.203125 10.8125 243.761719 10.785156 C 266.539062 9.601562 289.292969 11.933594 311.5 17 Z M 164 36 C 163.136719 36.363281 162.273438 36.726562 161.410156 37.09375 C 153.425781 40.476562 145.78125 44.28125 138.335938 48.71875 C 137.042969 49.476562 135.730469 50.179688 134.40625 50.875 C 125.992188 55.445312 118.074219 61.1875 110.59375 67.140625 C 109.742188 67.808594 108.882812 68.460938 108.015625 69.109375 C 104.195312 71.972656 100.683594 75.0625 97.210938 78.335938 C 96.246094 79.238281 95.25 80.105469 94.25 80.96875 C 93.148438 81.917969 92.125 82.875 91.09375 83.90625 C 90 85 90 85 88.5 86 C 88.5 86.328125 88.5 86.660156 88.5 87 C 88.003906 87.164062 87.511719 87.328125 87 87.5 C 86.246094 88.246094 86.246094 88.246094 85.5 89.1875 C 84.019531 90.941406 82.453125 92.554688 80.8125 94.15625 C 78.589844 96.339844 76.585938 98.636719 74.648438 101.074219 C 73.652344 102.3125 72.625 103.515625 71.585938 104.714844 C 65.675781 111.546875 60.539062 118.992188 55.617188 126.554688 C 55.101562 127.34375 54.582031 128.132812 54.058594 128.914062 C 48.523438 137.390625 43.914062 146.402344 39.5 155.5 C 39.316406 155.871094 39.136719 156.246094 38.945312 156.628906 C 36.984375 160.644531 35.292969 164.714844 33.769531 168.910156 C 33.097656 170.757812 32.375 172.582031 31.644531 174.410156 C 30.246094 177.933594 29 181.4375 28.011719 185.101562 C 27.625 186.535156 27.222656 187.957031 26.800781 189.378906 C 23.488281 200.609375 21.222656 211.921875 19.5 223.5 C 19.378906 224.316406 19.378906 224.316406 19.253906 225.148438 C 13.488281 265.242188 19.273438 308.242188 35.074219 345.476562 C 35.542969 346.601562 35.984375 347.738281 36.429688 348.878906 C 37.585938 351.78125 38.921875 354.59375 40.28125 357.40625 C 40.542969 357.949219 40.804688 358.492188 41.074219 359.050781 C 44.71875 366.558594 48.460938 373.988281 53 381 C 53.230469 381.355469 53.460938 381.710938 53.695312 382.078125 C 54.695312 383.628906 55.695312 385.175781 56.703125 386.722656 C 56.929688 387.066406 57.15625 387.414062 57.390625 387.769531 C 57.589844 388.082031 57.792969 388.390625 58 388.710938 C 58.5 389.5 58.5 389.5 59 390.5 C 59.328125 390.5 59.660156 390.5 60 390.5 C 60.1875 391.035156 60.1875 391.035156 60.375 391.578125 C 61.074219 393.171875 61.941406 394.371094 63 395.75 C 63.296875 396.136719 63.296875 396.136719 63.601562 396.535156 C 64.019531 397.082031 64.441406 397.628906 64.863281 398.175781 C 65.480469 398.976562 66.089844 399.78125 66.695312 400.589844 C 69.207031 403.917969 71.832031 407.117188 74.578125 410.253906 C 76.453125 412.40625 76.453125 412.40625 77 413.5 C 77.328125 413.5 77.660156 413.5 78 413.5 C 78.195312 413.9375 78.195312 413.9375 78.390625 414.386719 C 79.046875 415.582031 79.746094 416.355469 80.722656 417.300781 C 81.054688 417.628906 81.386719 417.957031 81.730469 418.292969 C 82.078125 418.628906 82.421875 418.964844 82.78125 419.3125 C 83.46875 419.984375 84.160156 420.65625 84.847656 421.332031 C 85.152344 421.628906 85.457031 421.925781 85.769531 422.230469 C 86.5 423 86.5 423 87 424 C 87.328125 424 87.660156 424 88 424 C 88.132812 424.320312 88.269531 424.640625 88.40625 424.96875 C 88.941406 426.164062 88.941406 426.164062 90.5 426.5 C 90.664062 426.996094 90.828125 427.488281 91 428 C 91.726562 428.757812 91.726562 428.757812 92.65625 429.5 C 94.414062 430.984375 96.101562 432.523438 97.78125 434.09375 C 105.996094 441.691406 115.210938 448.289062 124.5 454.5 C 124.925781 454.785156 124.925781 454.785156 125.363281 455.078125 C 130.738281 458.675781 136.347656 461.859375 142 465 C 142.585938 465.324219 142.585938 465.324219 143.179688 465.660156 C 150.242188 469.566406 157.582031 472.828125 165 476 C 165.683594 476.292969 165.683594 476.292969 166.378906 476.589844 C 185.992188 484.917969 207.394531 489.988281 228.53125 492.375 C 229.042969 492.433594 229.550781 492.492188 230.078125 492.550781 C 238.394531 493.421875 246.734375 493.605469 255.09375 493.59375 C 255.570312 493.59375 256.046875 493.59375 256.539062 493.59375 C 284.367188 493.535156 313.550781 489.6875 339.347656 478.699219 C 341.253906 477.894531 343.183594 477.179688 345.125 476.46875 C 348.320312 475.28125 351.417969 473.960938 354.5 472.5 C 355.152344 472.199219 355.808594 471.898438 356.460938 471.597656 C 361.234375 469.390625 365.898438 467.042969 370.5 464.5 C 371.058594 464.191406 371.613281 463.886719 372.1875 463.570312 C 382.445312 457.820312 392.285156 451.300781 401.5 444 C 401.8125 443.753906 402.125 443.507812 402.445312 443.253906 C 406.035156 440.417969 409.605469 437.570312 413 434.5 C 413.855469 433.730469 414.707031 432.957031 415.5625 432.1875 C 415.980469 431.808594 416.402344 431.429688 416.835938 431.039062 C 417.78125 430.195312 418.738281 429.371094 419.71875 428.5625 C 421.1875 427.359375 421.1875 427.359375 422.5 426 C 422.5 425.671875 422.5 425.339844 422.5 425 C 422.828125 425 423.160156 425 423.5 425 C 424.332031 424.332031 424.332031 424.332031 425 423.5 C 425 423.171875 425 422.839844 425 422.5 C 425.328125 422.5 425.660156 422.5 426 422.5 C 426.765625 421.742188 426.765625 421.742188 427.5625 420.75 C 428.832031 419.253906 430.132812 417.839844 431.53125 416.46875 C 434.171875 413.875 434.171875 413.875 436.5 411 C 436.5 410.671875 436.5 410.339844 436.5 410 C 436.828125 410 437.160156 410 437.5 410 C 438.269531 409.160156 438.269531 409.160156 439.0625 408.0625 C 440.328125 406.382812 441.613281 404.726562 442.9375 403.09375 C 446.835938 398.222656 450.460938 393.199219 453.90625 388 C 454.097656 387.710938 454.292969 387.417969 454.492188 387.117188 C 459.457031 379.640625 464.109375 372.09375 468 364 C 468.304688 363.398438 468.613281 362.796875 468.921875 362.199219 C 479.496094 341.65625 486.378906 319.683594 490.5 297 C 490.589844 296.496094 490.683594 295.992188 490.777344 295.476562 C 497.605469 256.964844 493.867188 217.605469 482 180.5 C 481.757812 179.730469 481.757812 179.730469 481.507812 178.949219 C 480.355469 175.378906 478.96875 171.949219 477.5 168.5 C 477.097656 167.523438 476.699219 166.546875 476.304688 165.570312 C 474.074219 160.121094 471.78125 154.757812 469.046875 149.546875 C 468.4375 148.378906 467.839844 147.203125 467.242188 146.027344 C 463.15625 138.058594 458.777344 130.25 453.5 123 C 453.066406 122.378906 452.632812 121.753906 452.203125 121.132812 C 443.597656 108.734375 433.933594 97.328125 423.25 86.683594 C 422.398438 85.835938 421.550781 84.988281 420.703125 84.136719 C 416.132812 79.007812 416.132812 79.007812 410.5 75.5 C 410.5 75.171875 410.5 74.839844 410.5 74.5 C 409.777344 73.808594 409.777344 73.808594 408.816406 73.121094 C 408.28125 72.71875 408.28125 72.71875 407.730469 72.304688 C 407.347656 72.019531 406.960938 71.730469 406.5625 71.4375 C 405.773438 70.84375 404.984375 70.25 404.195312 69.65625 C 403.8125 69.371094 403.429688 69.082031 403.035156 68.789062 C 401.824219 67.867188 400.644531 66.90625 399.46875 65.9375 C 396.132812 63.246094 392.554688 60.890625 389 58.5 C 388.667969 58.277344 388.335938 58.054688 387.996094 57.824219 C 386.117188 56.558594 384.234375 55.300781 382.339844 54.054688 C 381.566406 53.542969 380.792969 53.03125 380.019531 52.515625 C 377.265625 50.71875 374.464844 49.195312 371.507812 47.761719 C 370.011719 47.007812 368.589844 46.179688 367.15625 45.3125 C 363.398438 43.09375 359.476562 41.289062 355.5 39.5 C 354.824219 39.195312 354.824219 39.195312 354.132812 38.882812 C 348.640625 36.421875 343.152344 34.085938 337.445312 32.175781 C 335.976562 31.683594 334.554688 31.117188 333.125 30.523438 C 330.355469 29.40625 327.535156 28.59375 324.65625 27.8125 C 324.113281 27.664062 323.566406 27.511719 323.003906 27.359375 C 321.882812 27.050781 320.757812 26.746094 319.632812 26.441406 C 318.121094 26.03125 316.613281 25.613281 315.101562 25.195312 C 303.925781 22.132812 292.527344 20.164062 281 19 C 280.613281 18.960938 280.230469 18.917969 279.832031 18.878906 C 271.992188 18.0625 264.222656 17.820312 256.34375 17.84375 C 255.460938 17.84375 255.460938 17.84375 254.5625 17.847656 C 223.648438 17.917969 192.460938 23.675781 164 36 Z M 164 36 "/>
</g>
</svg>
