<?xml version="1.0" encoding="UTF-8"?>
<svg xmlns="http://www.w3.org/2000/svg" xmlns:xlink="http://www.w3.org/1999/xlink" width="192px" height="192px" viewBox="0 0 192 192" version="1.1">
<g id="surface1">
<path style=" stroke:none;fill-rule:nonzero;fill:rgb(100%,100%,100%);fill-opacity:1;" d="M 116.8125 6.375 C 117.175781 6.457031 117.539062 6.535156 117.902344 6.617188 C 119.738281 7.027344 121.515625 7.527344 123.289062 8.152344 C 123.941406 8.378906 124.605469 8.582031 125.269531 8.78125 C 126.652344 9.203125 128.003906 9.707031 129.351562 10.230469 C 129.476562 10.277344 129.601562 10.328125 129.734375 10.378906 C 132.109375 11.300781 134.414062 12.339844 136.6875 13.5 C 136.929688 13.621094 136.929688 13.621094 137.171875 13.746094 C 140.160156 15.277344 143.050781 16.9375 145.875 18.75 C 145.988281 18.824219 146.105469 18.898438 146.222656 18.972656 C 148.847656 20.667969 151.394531 22.507812 153.804688 24.496094 C 154.117188 24.761719 154.117188 24.761719 154.5 24.9375 C 154.5 25.0625 154.5 25.183594 154.5 25.3125 C 154.664062 25.390625 154.664062 25.390625 154.835938 25.46875 C 155.238281 25.679688 155.542969 25.90625 155.886719 26.203125 C 156.003906 26.304688 156.121094 26.40625 156.238281 26.511719 C 156.363281 26.617188 156.484375 26.726562 156.609375 26.835938 C 156.734375 26.945312 156.859375 27.054688 156.988281 27.167969 C 157.789062 27.871094 158.5625 28.589844 159.296875 29.363281 C 159.558594 29.644531 159.558594 29.644531 159.9375 29.8125 C 159.9375 29.9375 159.9375 30.058594 159.9375 30.1875 C 160.117188 30.261719 160.117188 30.261719 160.300781 30.339844 C 160.6875 30.5625 160.6875 30.5625 160.875 31.125 C 161 31.1875 161.121094 31.25 161.25 31.3125 C 161.375 31.375 161.496094 31.4375 161.625 31.5 C 161.6875 31.6875 161.75 31.871094 161.8125 32.0625 C 161.9375 32.0625 162.058594 32.0625 162.1875 32.0625 C 162.433594 32.304688 162.433594 32.304688 162.726562 32.660156 C 163.4375 33.5 164.183594 34.304688 164.933594 35.109375 C 166.6875 36.996094 166.6875 36.996094 166.6875 37.5 C 166.8125 37.5 166.933594 37.5 167.0625 37.5 C 167.304688 37.773438 167.304688 37.773438 167.574219 38.152344 C 167.671875 38.289062 167.773438 38.429688 167.875 38.570312 C 168.03125 38.78125 168.03125 38.78125 168.1875 39 C 168.382812 39.253906 168.578125 39.511719 168.777344 39.765625 C 169.957031 41.285156 171.078125 42.820312 172.125 44.4375 C 172.273438 44.65625 172.417969 44.871094 172.566406 45.089844 C 173.664062 46.703125 174.679688 48.351562 175.648438 50.042969 C 175.867188 50.421875 176.085938 50.800781 176.308594 51.179688 C 177.324219 52.9375 178.207031 54.742188 179.054688 56.582031 C 179.234375 56.960938 179.414062 57.339844 179.59375 57.71875 C 180.4375 59.480469 181.175781 61.277344 181.882812 63.097656 C 181.996094 63.394531 182.113281 63.6875 182.230469 63.984375 C 189.691406 82.84375 189.722656 104.839844 180.847656 131.40625 C 179.769531 133.890625 178.648438 136.359375 177.375 138.75 C 177.308594 138.878906 177.238281 139.003906 177.171875 139.136719 C 175.328125 142.578125 173.257812 145.878906 171 149.0625 C 170.867188 149.25 170.734375 149.4375 170.597656 149.632812 C 169.859375 150.667969 169.078125 151.65625 168.265625 152.632812 C 167.84375 153.148438 167.433594 153.671875 167.027344 154.199219 C 166.304688 155.128906 165.59375 156.019531 164.738281 156.832031 C 164.015625 157.535156 163.378906 158.328125 162.722656 159.09375 C 162.589844 159.25 162.453125 159.402344 162.316406 159.5625 C 162.195312 159.707031 162.070312 159.847656 161.945312 159.996094 C 161.625 160.3125 161.625 160.3125 161.25 160.3125 C 161.203125 160.421875 161.15625 160.527344 161.109375 160.640625 C 160.839844 161.125 160.539062 161.449219 160.125 161.8125 C 160 161.8125 159.878906 161.8125 159.75 161.8125 C 159.75 161.9375 159.75 162.058594 159.75 162.1875 C 159.625 162.1875 159.503906 162.1875 159.375 162.1875 C 159.375 162.3125 159.375 162.433594 159.375 162.5625 C 159.113281 162.828125 159.113281 162.828125 158.742188 163.136719 C 158.140625 163.644531 157.554688 164.164062 156.972656 164.695312 C 155.988281 165.582031 154.96875 166.417969 153.9375 167.25 C 153.726562 167.421875 153.515625 167.597656 153.308594 167.769531 C 151.585938 169.183594 149.785156 170.445312 147.9375 171.683594 C 147.5 171.980469 147.066406 172.292969 146.636719 172.605469 C 144.085938 174.398438 141.300781 175.890625 138.5625 177.375 C 138.421875 177.453125 138.28125 177.527344 138.136719 177.609375 C 135.402344 179.097656 135.402344 179.097656 133.953125 179.636719 C 133.425781 179.84375 132.921875 180.082031 132.410156 180.328125 C 130.835938 181.0625 129.207031 181.664062 127.578125 182.269531 C 127.195312 182.410156 126.8125 182.554688 126.425781 182.703125 C 121.3125 184.597656 115.820312 185.898438 110.4375 186.75 C 110.242188 186.78125 110.242188 186.78125 110.039062 186.8125 C 105.414062 187.550781 100.808594 187.777344 96.128906 187.78125 C 95.726562 187.78125 95.324219 187.78125 94.917969 187.785156 C 90.039062 187.792969 85.257812 187.3125 80.4375 186.5625 C 80.210938 186.527344 79.988281 186.492188 79.753906 186.457031 C 77.761719 186.136719 75.804688 185.65625 73.84375 185.183594 C 73.566406 185.117188 73.292969 185.054688 73.019531 184.988281 C 71.539062 184.640625 70.089844 184.269531 68.667969 183.722656 C 68.171875 183.53125 67.671875 183.378906 67.160156 183.234375 C 62.3125 181.765625 57.726562 179.664062 53.226562 177.367188 C 52.890625 177.195312 52.554688 177.027344 52.222656 176.859375 C 48.117188 174.742188 44.246094 172.121094 40.574219 169.324219 C 40.03125 168.910156 39.492188 168.511719 38.914062 168.144531 C 38.757812 168.035156 38.597656 167.925781 38.4375 167.8125 C 38.4375 167.6875 38.4375 167.566406 38.4375 167.4375 C 38.339844 167.398438 38.242188 167.359375 38.140625 167.316406 C 37.496094 166.957031 36.976562 166.480469 36.421875 165.996094 C 36.304688 165.894531 36.1875 165.792969 36.066406 165.6875 C 35.730469 165.398438 35.398438 165.105469 35.0625 164.8125 C 34.914062 164.683594 34.765625 164.550781 34.609375 164.417969 C 34.375 164.210938 34.136719 164.007812 33.902344 163.800781 C 33.652344 163.578125 33.394531 163.359375 33.140625 163.144531 C 33 163.023438 32.863281 162.90625 32.71875 162.785156 C 32.59375 162.679688 32.46875 162.574219 32.339844 162.464844 C 32.0625 162.1875 32.0625 162.1875 32.0625 161.8125 C 31.960938 161.773438 31.863281 161.734375 31.757812 161.695312 C 31.140625 161.335938 30.640625 160.867188 30.1875 160.3125 C 30.1875 160.1875 30.1875 160.066406 30.1875 159.9375 C 30 159.875 29.816406 159.8125 29.625 159.75 C 29.316406 159.4375 29.316406 159.4375 28.992188 159.046875 C 28.597656 158.578125 28.203125 158.132812 27.761719 157.710938 C 27.375 157.3125 27.375 157.3125 27.375 156.9375 C 27.25 156.9375 27.128906 156.9375 27 156.9375 C 26.742188 156.65625 26.5 156.359375 26.261719 156.058594 C 25.710938 155.371094 25.160156 154.695312 24.582031 154.03125 C 23.214844 152.453125 22.011719 150.765625 20.8125 149.0625 C 20.664062 148.851562 20.511719 148.640625 20.363281 148.429688 C 18.472656 145.746094 16.742188 142.953125 15.1875 140.0625 C 15.101562 139.902344 15.011719 139.738281 14.925781 139.574219 C 13.207031 136.375 11.679688 133.113281 10.3125 129.75 C 10.226562 129.542969 10.144531 129.339844 10.054688 129.125 C 9.398438 127.511719 8.808594 125.890625 8.273438 124.230469 C 8.234375 124.109375 8.195312 123.984375 8.152344 123.859375 C 6.207031 117.78125 4.925781 111.542969 4.3125 105.1875 C 4.296875 105.035156 4.28125 104.882812 4.265625 104.722656 C 3.980469 101.8125 3.875 98.933594 3.890625 96.011719 C 3.890625 95.808594 3.890625 95.601562 3.890625 95.390625 C 3.902344 92.449219 3.96875 89.546875 4.3125 86.625 C 4.355469 86.230469 4.394531 85.839844 4.4375 85.445312 C 4.691406 83.082031 5.058594 80.753906 5.539062 78.425781 C 5.617188 78.046875 5.6875 77.664062 5.757812 77.28125 C 6.984375 70.734375 9.128906 64.230469 11.972656 58.210938 C 12.199219 57.722656 12.425781 57.238281 12.652344 56.75 C 13.535156 54.847656 14.480469 53.003906 15.535156 51.191406 C 15.792969 50.738281 16.039062 50.277344 16.285156 49.820312 C 16.851562 48.777344 17.464844 47.769531 18.105469 46.769531 C 18.277344 46.503906 18.277344 46.503906 18.449219 46.230469 C 19.550781 44.523438 20.722656 42.875 21.9375 41.25 C 22.089844 41.046875 22.089844 41.046875 22.246094 40.835938 C 23.488281 39.171875 24.777344 37.554688 26.144531 35.992188 C 26.453125 35.636719 26.753906 35.269531 27.039062 34.894531 C 27.152344 34.765625 27.261719 34.632812 27.375 34.5 C 27.5 34.5 27.621094 34.5 27.75 34.5 C 27.796875 34.390625 27.84375 34.285156 27.890625 34.171875 C 28.160156 33.6875 28.472656 33.371094 28.875 32.988281 C 29.320312 32.5625 29.65625 32.203125 30 31.6875 C 30.125 31.6875 30.246094 31.6875 30.375 31.6875 C 30.425781 31.574219 30.476562 31.464844 30.527344 31.347656 C 30.75 30.9375 30.957031 30.671875 31.3125 30.375 C 31.4375 30.375 31.558594 30.375 31.6875 30.375 C 31.75 30.1875 31.8125 30.003906 31.875 29.8125 C 32.195312 29.496094 32.195312 29.496094 32.589844 29.167969 C 33.019531 28.804688 33.425781 28.449219 33.820312 28.042969 C 34.125 27.75 34.125 27.75 34.5 27.75 C 34.5 27.625 34.5 27.503906 34.5 27.375 C 34.800781 27.101562 35.117188 26.84375 35.4375 26.589844 C 36.238281 25.949219 37.015625 25.296875 37.769531 24.601562 C 38.0625 24.375 38.0625 24.375 38.4375 24.375 C 38.4375 24.25 38.4375 24.128906 38.4375 24 C 38.851562 23.675781 39.269531 23.371094 39.703125 23.074219 C 39.941406 22.910156 40.179688 22.742188 40.414062 22.578125 C 40.527344 22.5 40.640625 22.421875 40.757812 22.339844 C 41.007812 22.164062 41.253906 21.976562 41.5 21.785156 C 41.8125 21.5625 41.8125 21.5625 42.1875 21.5625 C 42.1875 21.4375 42.1875 21.316406 42.1875 21.1875 C 42.609375 20.878906 43.027344 20.589844 43.464844 20.308594 C 43.59375 20.222656 43.722656 20.140625 43.855469 20.054688 C 44.234375 19.804688 44.617188 19.558594 45 19.3125 C 45.179688 19.195312 45.359375 19.078125 45.546875 18.957031 C 51.691406 14.996094 58.511719 11.160156 65.5625 9.125 C 66.429688 8.875 67.28125 8.59375 68.121094 8.269531 C 69.582031 7.714844 71.070312 7.320312 72.585938 6.949219 C 72.71875 6.917969 72.847656 6.882812 72.984375 6.851562 C 78.914062 5.394531 84.894531 4.394531 90.996094 4.066406 C 91.203125 4.054688 91.203125 4.054688 91.410156 4.042969 C 99.953125 3.601562 108.484375 4.472656 116.8125 6.375 Z M 116.8125 6.375 "/>
<path style=" stroke:none;fill-rule:nonzero;fill:rgb(0%,0%,0%);fill-opacity:1;" d="M 32.777344 39.632812 C 33.679688 39.808594 33.996094 40.328125 34.5 41.0625 C 35.101562 41.988281 35.628906 42.945312 36.140625 43.921875 C 38.28125 47.867188 41.441406 51.363281 45.847656 52.699219 C 46.238281 52.796875 46.628906 52.886719 47.019531 52.96875 C 47.4375 53.0625 47.4375 53.0625 47.625 53.25 C 50.78125 53.769531 54.601562 54.191406 57.5625 52.875 C 58.046875 52.71875 58.527344 52.570312 59.015625 52.429688 C 59.152344 52.390625 59.289062 52.351562 59.429688 52.308594 C 60.910156 51.882812 62.402344 51.496094 63.894531 51.109375 C 64.515625 50.945312 65.132812 50.78125 65.753906 50.613281 C 67.207031 50.226562 68.664062 49.855469 70.125 49.5 C 70.445312 49.421875 70.445312 49.421875 70.769531 49.339844 C 71.9375 49.0625 73.097656 48.84375 74.285156 48.671875 C 75 48.5625 75.710938 48.433594 76.421875 48.296875 C 90.003906 45.742188 104.378906 45.808594 117.929688 48.527344 C 118.679688 48.679688 119.433594 48.8125 120.191406 48.933594 C 121.320312 49.117188 122.421875 49.367188 123.527344 49.640625 C 123.832031 49.714844 123.832031 49.714844 124.140625 49.789062 C 124.761719 49.941406 125.378906 50.09375 126 50.25 C 126.1875 50.296875 126.375 50.34375 126.570312 50.390625 C 128.558594 50.886719 130.519531 51.429688 132.46875 52.066406 C 135.515625 53.0625 138.464844 53.46875 141.667969 53.472656 C 141.867188 53.476562 142.066406 53.476562 142.269531 53.480469 C 143.523438 53.480469 144.65625 53.34375 145.875 53.0625 C 146.089844 53.023438 146.304688 52.988281 146.527344 52.949219 C 149.316406 52.433594 151.585938 51.320312 153.75 49.5 C 153.902344 49.375 154.054688 49.253906 154.210938 49.125 C 155.851562 47.738281 156.996094 46.09375 158.0625 44.25 C 158.40625 43.660156 158.753906 43.078125 159.105469 42.492188 C 159.234375 42.269531 159.234375 42.269531 159.367188 42.046875 C 159.960938 41.058594 160.488281 40.316406 161.625 39.9375 C 162.292969 40.195312 162.628906 40.53125 162.960938 41.144531 C 164.355469 44.300781 164.164062 47.902344 163.3125 51.1875 C 163.261719 51.402344 163.210938 51.613281 163.160156 51.832031 C 162.296875 55.324219 161.027344 58.683594 159.375 61.875 C 159.304688 62.007812 159.238281 62.140625 159.167969 62.28125 C 158.214844 64.105469 157.113281 65.722656 155.8125 67.3125 C 155.667969 67.507812 155.667969 67.507812 155.515625 67.707031 C 154.140625 69.492188 151.550781 70.792969 149.355469 71.195312 C 145.59375 71.617188 142.695312 70.527344 139.769531 68.25 C 139.585938 68.101562 139.40625 67.957031 139.21875 67.804688 C 138.988281 67.652344 138.988281 67.652344 138.75 67.5 C 137.9375 67.769531 137.753906 68.257812 137.339844 68.984375 C 136.886719 69.933594 136.636719 70.914062 136.410156 71.9375 C 136.34375 72.242188 136.273438 72.542969 136.199219 72.84375 C 134.078125 81.660156 134.367188 91.304688 134.796875 100.304688 C 134.8125 100.699219 134.828125 101.089844 134.84375 101.480469 C 135.121094 108.59375 135.714844 115.726562 136.785156 122.765625 C 136.917969 123.652344 137.03125 124.542969 137.144531 125.433594 C 137.714844 129.816406 138.320312 134.199219 139.226562 138.527344 C 140.390625 144.109375 140.390625 144.109375 139.410156 145.753906 C 138.820312 146.394531 138.042969 146.683594 137.25 147 C 137.113281 147.058594 136.976562 147.117188 136.839844 147.175781 C 135.710938 147.648438 134.597656 147.976562 133.40625 148.242188 C 133.246094 148.28125 133.085938 148.320312 132.921875 148.359375 C 129.96875 149.027344 127.003906 149.125 123.988281 149.113281 C 123.40625 149.109375 122.824219 149.113281 122.246094 149.113281 C 120.328125 149.113281 118.511719 149.046875 116.625 148.6875 C 116.355469 148.660156 116.085938 148.636719 115.816406 148.617188 C 112.074219 148.226562 108.15625 146.753906 105.375 144.1875 C 104.957031 143.417969 104.996094 142.972656 105.230469 142.144531 C 105.316406 141.824219 105.316406 141.824219 105.40625 141.496094 C 105.46875 141.273438 105.53125 141.050781 105.597656 140.824219 C 106.015625 139.316406 106.40625 137.8125 106.726562 136.28125 C 106.863281 135.617188 107.007812 134.953125 107.152344 134.289062 C 107.980469 130.519531 108.757812 126.746094 109.441406 122.949219 C 109.492188 122.660156 109.542969 122.375 109.597656 122.085938 C 109.632812 121.878906 109.632812 121.878906 109.671875 121.671875 C 109.851562 120.679688 110.054688 119.695312 110.273438 118.710938 C 111.765625 111.929688 112.363281 104.921875 113.054688 98.023438 C 113.070312 97.855469 113.085938 97.683594 113.105469 97.507812 C 113.15625 97.003906 113.203125 96.503906 113.25 96 C 113.265625 95.828125 113.285156 95.65625 113.300781 95.480469 C 113.449219 93.90625 113.476562 92.339844 113.480469 90.761719 C 113.484375 90.621094 113.484375 90.480469 113.484375 90.335938 C 113.488281 89.589844 113.492188 88.847656 113.492188 88.101562 C 113.496094 87.496094 113.5 86.894531 113.503906 86.289062 C 113.542969 82.449219 113.378906 78.792969 112.6875 75 C 112.65625 74.820312 112.625 74.640625 112.589844 74.457031 C 112.003906 71.175781 111.214844 68.261719 108.367188 66.246094 C 104.367188 63.582031 99.339844 63.035156 94.683594 63.863281 C 90.816406 64.648438 87.511719 66.460938 85.265625 69.765625 C 77.804688 82.273438 82.226562 105.28125 84.90625 120.472656 C 85.039062 121.210938 85.171875 121.945312 85.296875 122.683594 C 85.738281 125.261719 86.21875 127.832031 86.742188 130.394531 C 86.78125 130.589844 86.820312 130.785156 86.863281 130.984375 C 87.589844 134.554688 88.4375 138.085938 89.347656 141.613281 C 90.238281 145.054688 90.238281 145.054688 89.496094 146.484375 C 88.648438 147.492188 87.613281 147.929688 86.390625 148.3125 C 86.164062 148.382812 86.164062 148.382812 85.933594 148.457031 C 83.835938 149.082031 81.664062 149.339844 79.5 149.625 C 79.140625 149.675781 79.140625 149.675781 78.777344 149.730469 C 72.234375 150.527344 63.875 150.542969 58.125 147 C 58.125 146.875 58.125 146.753906 58.125 146.625 C 58.019531 146.582031 57.914062 146.539062 57.804688 146.492188 C 57.265625 146.1875 56.9375 145.8125 56.53125 145.347656 C 56.320312 145.109375 56.320312 145.109375 56.101562 144.863281 C 55.964844 144.703125 55.828125 144.542969 55.6875 144.375 C 55.546875 144.214844 55.40625 144.058594 55.265625 143.894531 C 54.589844 142.953125 54.914062 141.792969 55.078125 140.707031 C 55.265625 139.652344 55.53125 138.625 55.800781 137.585938 C 56.019531 136.734375 56.148438 135.914062 56.210938 135.039062 C 56.265625 134.476562 56.394531 133.9375 56.523438 133.386719 C 56.898438 131.710938 57.101562 129.996094 57.320312 128.296875 C 57.378906 127.835938 57.441406 127.375 57.503906 126.914062 C 57.980469 123.367188 58.453125 119.808594 58.640625 116.230469 C 58.695312 115.367188 58.777344 114.507812 58.863281 113.648438 C 59.234375 109.832031 59.484375 106.039062 59.5625 102.207031 C 59.5625 102.066406 59.566406 101.925781 59.570312 101.777344 C 59.578125 101.394531 59.585938 101.011719 59.59375 100.628906 C 59.625 99.9375 59.625 99.9375 59.71875 99.332031 C 59.816406 98.585938 59.839844 97.855469 59.835938 97.101562 C 59.835938 96.957031 59.835938 96.808594 59.835938 96.660156 C 59.839844 96.179688 59.839844 95.699219 59.835938 95.21875 C 59.835938 94.886719 59.835938 94.550781 59.839844 94.214844 C 59.839844 93.511719 59.835938 92.8125 59.835938 92.109375 C 59.835938 91.210938 59.835938 90.316406 59.835938 89.417969 C 59.839844 88.726562 59.839844 88.035156 59.835938 87.339844 C 59.835938 87.011719 59.835938 86.679688 59.839844 86.347656 C 59.839844 85.886719 59.835938 85.421875 59.835938 84.960938 C 59.835938 84.757812 59.835938 84.757812 59.839844 84.550781 C 59.835938 83.726562 59.753906 82.9375 59.625 82.125 C 59.605469 81.808594 59.59375 81.488281 59.585938 81.171875 C 59.492188 77.828125 59.210938 74.527344 58.511719 71.25 C 58.484375 71.117188 58.457031 70.988281 58.429688 70.851562 C 58.210938 69.902344 57.835938 69.109375 57.375 68.25 C 56.613281 68.523438 55.980469 68.898438 55.300781 69.339844 C 53.667969 70.367188 52.023438 71.203125 50.0625 71.25 C 49.890625 71.257812 49.714844 71.265625 49.539062 71.273438 C 48.171875 71.304688 46.898438 71.140625 45.5625 70.875 C 45.335938 70.835938 45.335938 70.835938 45.105469 70.792969 C 44.058594 70.589844 43.136719 70.234375 42.1875 69.75 C 41.960938 69.636719 41.960938 69.636719 41.730469 69.523438 C 39.632812 68.386719 38.308594 66.515625 37.125 64.5 C 37.011719 64.324219 36.898438 64.148438 36.785156 63.964844 C 34.75 60.652344 33.46875 56.839844 32.378906 53.125 C 32.265625 52.734375 32.144531 52.347656 32.023438 51.957031 C 31.105469 48.832031 29.839844 43.65625 31.46875 40.609375 C 31.871094 40.0625 32.101562 39.78125 32.777344 39.632812 Z M 32.777344 39.632812 "/>
<path style=" stroke:none;fill-rule:nonzero;fill:rgb(0%,0%,0%);fill-opacity:1;" d="M 116.8125 6.375 C 117.175781 6.457031 117.539062 6.535156 117.902344 6.617188 C 119.738281 7.027344 121.515625 7.527344 123.289062 8.152344 C 123.941406 8.378906 124.605469 8.582031 125.269531 8.78125 C 126.652344 9.203125 128.003906 9.707031 129.351562 10.230469 C 129.476562 10.277344 129.601562 10.328125 129.734375 10.378906 C 132.109375 11.300781 134.414062 12.339844 136.6875 13.5 C 136.929688 13.621094 136.929688 13.621094 137.171875 13.746094 C 140.160156 15.277344 143.050781 16.9375 145.875 18.75 C 145.988281 18.824219 146.105469 18.898438 146.222656 18.972656 C 148.847656 20.667969 151.394531 22.507812 153.804688 24.496094 C 154.117188 24.761719 154.117188 24.761719 154.5 24.9375 C 154.5 25.0625 154.5 25.183594 154.5 25.3125 C 154.664062 25.390625 154.664062 25.390625 154.835938 25.46875 C 155.238281 25.679688 155.542969 25.90625 155.886719 26.203125 C 156.003906 26.304688 156.121094 26.40625 156.238281 26.511719 C 156.363281 26.617188 156.484375 26.726562 156.609375 26.835938 C 156.734375 26.945312 156.859375 27.054688 156.988281 27.167969 C 157.789062 27.871094 158.5625 28.589844 159.296875 29.363281 C 159.558594 29.644531 159.558594 29.644531 159.9375 29.8125 C 159.9375 29.9375 159.9375 30.058594 159.9375 30.1875 C 160.117188 30.261719 160.117188 30.261719 160.300781 30.339844 C 160.6875 30.5625 160.6875 30.5625 160.875 31.125 C 161 31.1875 161.121094 31.25 161.25 31.3125 C 161.375 31.375 161.496094 31.4375 161.625 31.5 C 161.6875 31.6875 161.75 31.871094 161.8125 32.0625 C 161.9375 32.0625 162.058594 32.0625 162.1875 32.0625 C 162.433594 32.304688 162.433594 32.304688 162.726562 32.660156 C 163.4375 33.5 164.183594 34.304688 164.933594 35.109375 C 166.6875 36.996094 166.6875 36.996094 166.6875 37.5 C 166.8125 37.5 166.933594 37.5 167.0625 37.5 C 167.304688 37.773438 167.304688 37.773438 167.574219 38.152344 C 167.671875 38.289062 167.773438 38.429688 167.875 38.570312 C 168.03125 38.78125 168.03125 38.78125 168.1875 39 C 168.382812 39.253906 168.578125 39.511719 168.777344 39.765625 C 169.957031 41.285156 171.078125 42.820312 172.125 44.4375 C 172.273438 44.65625 172.417969 44.871094 172.566406 45.089844 C 173.664062 46.703125 174.679688 48.351562 175.648438 50.042969 C 175.867188 50.421875 176.085938 50.800781 176.308594 51.179688 C 177.324219 52.9375 178.207031 54.742188 179.054688 56.582031 C 179.234375 56.960938 179.414062 57.339844 179.59375 57.71875 C 180.4375 59.480469 181.175781 61.277344 181.882812 63.097656 C 181.996094 63.394531 182.113281 63.6875 182.230469 63.984375 C 189.691406 82.84375 189.722656 104.839844 180.847656 131.40625 C 179.769531 133.890625 178.648438 136.359375 177.375 138.75 C 177.308594 138.878906 177.238281 139.003906 177.171875 139.136719 C 175.328125 142.578125 173.257812 145.878906 171 149.0625 C 170.867188 149.25 170.734375 149.4375 170.597656 149.632812 C 169.859375 150.667969 169.078125 151.65625 168.265625 152.632812 C 167.84375 153.148438 167.433594 153.671875 167.027344 154.199219 C 166.304688 155.128906 165.59375 156.019531 164.738281 156.832031 C 164.015625 157.535156 163.378906 158.328125 162.722656 159.09375 C 162.589844 159.25 162.453125 159.402344 162.316406 159.5625 C 162.195312 159.707031 162.070312 159.847656 161.945312 159.996094 C 161.625 160.3125 161.625 160.3125 161.25 160.3125 C 161.203125 160.421875 161.15625 160.527344 161.109375 160.640625 C 160.839844 161.125 160.539062 161.449219 160.125 161.8125 C 160 161.8125 159.878906 161.8125 159.75 161.8125 C 159.75 161.9375 159.75 162.058594 159.75 162.1875 C 159.625 162.1875 159.503906 162.1875 159.375 162.1875 C 159.375 162.3125 159.375 162.433594 159.375 162.5625 C 159.113281 162.828125 159.113281 162.828125 158.742188 163.136719 C 158.140625 163.644531 157.554688 164.164062 156.972656 164.695312 C 155.988281 165.582031 154.96875 166.417969 153.9375 167.25 C 153.726562 167.421875 153.515625 167.597656 153.308594 167.769531 C 151.585938 169.183594 149.785156 170.445312 147.9375 171.683594 C 147.5 171.980469 147.066406 172.292969 146.636719 172.605469 C 144.085938 174.398438 141.300781 175.890625 138.5625 177.375 C 138.421875 177.453125 138.28125 177.527344 138.136719 177.609375 C 135.402344 179.097656 135.402344 179.097656 133.953125 179.636719 C 133.425781 179.84375 132.921875 180.082031 132.410156 180.328125 C 130.835938 181.0625 129.207031 181.664062 127.578125 182.269531 C 127.195312 182.410156 126.8125 182.554688 126.425781 182.703125 C 121.3125 184.597656 115.820312 185.898438 110.4375 186.75 C 110.242188 186.78125 110.242188 186.78125 110.039062 186.8125 C 105.414062 187.550781 100.808594 187.777344 96.128906 187.78125 C 95.726562 187.78125 95.324219 187.78125 94.917969 187.785156 C 90.039062 187.792969 85.257812 187.3125 80.4375 186.5625 C 80.210938 186.527344 79.988281 186.492188 79.753906 186.457031 C 77.761719 186.136719 75.804688 185.65625 73.84375 185.183594 C 73.566406 185.117188 73.292969 185.054688 73.019531 184.988281 C 71.539062 184.640625 70.089844 184.269531 68.667969 183.722656 C 68.171875 183.53125 67.671875 183.378906 67.160156 183.234375 C 62.3125 181.765625 57.726562 179.664062 53.226562 177.367188 C 52.890625 177.195312 52.554688 177.027344 52.222656 176.859375 C 48.117188 174.742188 44.246094 172.121094 40.574219 169.324219 C 40.03125 168.910156 39.492188 168.511719 38.914062 168.144531 C 38.757812 168.035156 38.597656 167.925781 38.4375 167.8125 C 38.4375 167.6875 38.4375 167.566406 38.4375 167.4375 C 38.339844 167.398438 38.242188 167.359375 38.140625 167.316406 C 37.496094 166.957031 36.976562 166.480469 36.421875 165.996094 C 36.304688 165.894531 36.1875 165.792969 36.066406 165.6875 C 35.730469 165.398438 35.398438 165.105469 35.0625 164.8125 C 34.914062 164.683594 34.765625 164.550781 34.609375 164.417969 C 34.375 164.210938 34.136719 164.007812 33.902344 163.800781 C 33.652344 163.578125 33.394531 163.359375 33.140625 163.144531 C 33 163.023438 32.863281 162.90625 32.71875 162.785156 C 32.59375 162.679688 32.46875 162.574219 32.339844 162.464844 C 32.0625 162.1875 32.0625 162.1875 32.0625 161.8125 C 31.960938 161.773438 31.863281 161.734375 31.757812 161.695312 C 31.140625 161.335938 30.640625 160.867188 30.1875 160.3125 C 30.1875 160.1875 30.1875 160.066406 30.1875 159.9375 C 30 159.875 29.816406 159.8125 29.625 159.75 C 29.316406 159.4375 29.316406 159.4375 28.992188 159.046875 C 28.597656 158.578125 28.203125 158.132812 27.761719 157.710938 C 27.375 157.3125 27.375 157.3125 27.375 156.9375 C 27.25 156.9375 27.128906 156.9375 27 156.9375 C 26.742188 156.65625 26.5 156.359375 26.261719 156.058594 C 25.710938 155.371094 25.160156 154.695312 24.582031 154.03125 C 23.214844 152.453125 22.011719 150.765625 20.8125 149.0625 C 20.664062 148.851562 20.511719 148.640625 20.363281 148.429688 C 18.472656 145.746094 16.742188 142.953125 15.1875 140.0625 C 15.101562 139.902344 15.011719 139.738281 14.925781 139.574219 C 13.207031 136.375 11.679688 133.113281 10.3125 129.75 C 10.226562 129.542969 10.144531 129.339844 10.054688 129.125 C 9.398438 127.511719 8.808594 125.890625 8.273438 124.230469 C 8.234375 124.109375 8.195312 123.984375 8.152344 123.859375 C 6.207031 117.78125 4.925781 111.542969 4.3125 105.1875 C 4.296875 105.035156 4.28125 104.882812 4.265625 104.722656 C 3.980469 101.8125 3.875 98.933594 3.890625 96.011719 C 3.890625 95.808594 3.890625 95.601562 3.890625 95.390625 C 3.902344 92.449219 3.96875 89.546875 4.3125 86.625 C 4.355469 86.230469 4.394531 85.839844 4.4375 85.445312 C 4.691406 83.082031 5.058594 80.753906 5.539062 78.425781 C 5.617188 78.046875 5.6875 77.664062 5.757812 77.28125 C 6.984375 70.734375 9.128906 64.230469 11.972656 58.210938 C 12.199219 57.722656 12.425781 57.238281 12.652344 56.75 C 13.535156 54.847656 14.480469 53.003906 15.535156 51.191406 C 15.792969 50.738281 16.039062 50.277344 16.285156 49.820312 C 16.851562 48.777344 17.464844 47.769531 18.105469 46.769531 C 18.277344 46.503906 18.277344 46.503906 18.449219 46.230469 C 19.550781 44.523438 20.722656 42.875 21.9375 41.25 C 22.089844 41.046875 22.089844 41.046875 22.246094 40.835938 C 23.488281 39.171875 24.777344 37.554688 26.144531 35.992188 C 26.453125 35.636719 26.753906 35.269531 27.039062 34.894531 C 27.152344 34.765625 27.261719 34.632812 27.375 34.5 C 27.5 34.5 27.621094 34.5 27.75 34.5 C 27.796875 34.390625 27.84375 34.285156 27.890625 34.171875 C 28.160156 33.6875 28.472656 33.371094 28.875 32.988281 C 29.320312 32.5625 29.65625 32.203125 30 31.6875 C 30.125 31.6875 30.246094 31.6875 30.375 31.6875 C 30.425781 31.574219 30.476562 31.464844 30.527344 31.347656 C 30.75 30.9375 30.957031 30.671875 31.3125 30.375 C 31.4375 30.375 31.558594 30.375 31.6875 30.375 C 31.75 30.1875 31.8125 30.003906 31.875 29.8125 C 32.195312 29.496094 32.195312 29.496094 32.589844 29.167969 C 33.019531 28.804688 33.425781 28.449219 33.820312 28.042969 C 34.125 27.75 34.125 27.75 34.5 27.75 C 34.5 27.625 34.5 27.503906 34.5 27.375 C 34.800781 27.101562 35.117188 26.84375 35.4375 26.589844 C 36.238281 25.949219 37.015625 25.296875 37.769531 24.601562 C 38.0625 24.375 38.0625 24.375 38.4375 24.375 C 38.4375 24.25 38.4375 24.128906 38.4375 24 C 38.851562 23.675781 39.269531 23.371094 39.703125 23.074219 C 39.941406 22.910156 40.179688 22.742188 40.414062 22.578125 C 40.527344 22.5 40.640625 22.421875 40.757812 22.339844 C 41.007812 22.164062 41.253906 21.976562 41.5 21.785156 C 41.8125 21.5625 41.8125 21.5625 42.1875 21.5625 C 42.1875 21.4375 42.1875 21.316406 42.1875 21.1875 C 42.609375 20.878906 43.027344 20.589844 43.464844 20.308594 C 43.59375 20.222656 43.722656 20.140625 43.855469 20.054688 C 44.234375 19.804688 44.617188 19.558594 45 19.3125 C 45.179688 19.195312 45.359375 19.078125 45.546875 18.957031 C 51.691406 14.996094 58.511719 11.160156 65.5625 9.125 C 66.429688 8.875 67.28125 8.59375 68.121094 8.269531 C 69.582031 7.714844 71.070312 7.320312 72.585938 6.949219 C 72.71875 6.917969 72.847656 6.882812 72.984375 6.851562 C 78.914062 5.394531 84.894531 4.394531 90.996094 4.066406 C 91.203125 4.054688 91.203125 4.054688 91.410156 4.042969 C 99.953125 3.601562 108.484375 4.472656 116.8125 6.375 Z M 61.5 13.5 C 61.175781 13.636719 60.851562 13.773438 60.527344 13.910156 C 57.535156 15.179688 54.667969 16.605469 51.875 18.269531 C 51.390625 18.554688 50.898438 18.816406 50.402344 19.078125 C 47.246094 20.792969 44.277344 22.945312 41.472656 25.179688 C 41.152344 25.429688 40.832031 25.671875 40.507812 25.914062 C 39.074219 26.988281 37.757812 28.148438 36.453125 29.375 C 36.089844 29.714844 35.71875 30.039062 35.34375 30.363281 C 34.929688 30.71875 34.546875 31.078125 34.160156 31.464844 C 33.75 31.875 33.75 31.875 33.1875 32.25 C 33.1875 32.375 33.1875 32.496094 33.1875 32.625 C 33 32.6875 32.816406 32.75 32.625 32.8125 C 32.34375 33.09375 32.34375 33.09375 32.0625 33.445312 C 31.507812 34.101562 30.921875 34.707031 30.304688 35.308594 C 29.472656 36.128906 28.71875 36.988281 27.992188 37.902344 C 27.617188 38.367188 27.234375 38.820312 26.84375 39.269531 C 24.628906 41.832031 22.703125 44.621094 20.855469 47.457031 C 20.664062 47.753906 20.46875 48.050781 20.273438 48.34375 C 18.195312 51.519531 16.46875 54.902344 14.8125 58.3125 C 14.742188 58.453125 14.675781 58.59375 14.605469 58.734375 C 13.871094 60.242188 13.234375 61.769531 12.664062 63.34375 C 12.410156 64.035156 12.140625 64.71875 11.867188 65.402344 C 11.339844 66.726562 10.875 68.039062 10.503906 69.414062 C 10.359375 69.949219 10.207031 70.484375 10.050781 71.019531 C 8.808594 75.226562 7.957031 79.472656 7.3125 83.8125 C 7.265625 84.117188 7.265625 84.117188 7.21875 84.429688 C 5.058594 99.464844 7.226562 115.589844 13.152344 129.554688 C 13.328125 129.976562 13.496094 130.402344 13.660156 130.828125 C 14.09375 131.917969 14.59375 132.972656 15.105469 134.027344 C 15.203125 134.230469 15.300781 134.433594 15.402344 134.644531 C 16.769531 137.460938 18.171875 140.246094 19.875 142.875 C 19.960938 143.007812 20.046875 143.140625 20.136719 143.28125 C 20.511719 143.859375 20.886719 144.441406 21.265625 145.019531 C 21.347656 145.152344 21.433594 145.28125 21.519531 145.414062 C 21.597656 145.53125 21.671875 145.644531 21.75 145.765625 C 21.9375 146.0625 21.9375 146.0625 22.125 146.4375 C 22.25 146.4375 22.371094 146.4375 22.5 146.4375 C 22.570312 146.636719 22.570312 146.636719 22.640625 146.839844 C 22.902344 147.4375 23.226562 147.890625 23.625 148.40625 C 23.738281 148.550781 23.738281 148.550781 23.851562 148.699219 C 24.007812 148.90625 24.164062 149.109375 24.324219 149.316406 C 24.554688 149.617188 24.785156 149.917969 25.011719 150.222656 C 25.953125 151.46875 26.9375 152.667969 27.964844 153.84375 C 28.667969 154.652344 28.667969 154.652344 28.875 155.0625 C 29 155.0625 29.121094 155.0625 29.25 155.0625 C 29.324219 155.226562 29.324219 155.226562 29.398438 155.394531 C 29.640625 155.84375 29.90625 156.132812 30.269531 156.488281 C 30.394531 156.609375 30.519531 156.734375 30.648438 156.859375 C 30.777344 156.984375 30.910156 157.113281 31.042969 157.242188 C 31.300781 157.496094 31.558594 157.746094 31.816406 158 C 31.929688 158.109375 32.046875 158.222656 32.164062 158.335938 C 32.4375 158.625 32.4375 158.625 32.625 159 C 32.75 159 32.871094 159 33 159 C 33.050781 159.121094 33.101562 159.238281 33.152344 159.363281 C 33.355469 159.8125 33.355469 159.8125 33.9375 159.9375 C 34 160.125 34.0625 160.308594 34.125 160.5 C 34.398438 160.785156 34.398438 160.785156 34.746094 161.0625 C 35.40625 161.621094 36.039062 162.195312 36.667969 162.785156 C 39.75 165.632812 43.203125 168.109375 46.6875 170.4375 C 46.847656 170.546875 46.847656 170.546875 47.011719 170.65625 C 49.027344 172.003906 51.128906 173.199219 53.25 174.375 C 53.46875 174.496094 53.46875 174.496094 53.691406 174.621094 C 56.339844 176.085938 59.09375 177.3125 61.875 178.5 C 62.128906 178.609375 62.128906 178.609375 62.390625 178.722656 C 69.746094 181.84375 77.773438 183.746094 85.699219 184.640625 C 85.890625 184.664062 86.082031 184.683594 86.277344 184.707031 C 89.398438 185.035156 92.527344 185.101562 95.660156 185.097656 C 95.839844 185.097656 96.019531 185.097656 96.203125 185.097656 C 106.636719 185.074219 117.582031 183.632812 127.253906 179.511719 C 127.96875 179.210938 128.695312 178.941406 129.421875 178.675781 C 130.621094 178.230469 131.78125 177.734375 132.9375 177.1875 C 133.183594 177.074219 133.429688 176.960938 133.671875 176.847656 C 135.460938 176.023438 137.210938 175.140625 138.9375 174.1875 C 139.148438 174.074219 139.355469 173.957031 139.570312 173.839844 C 143.417969 171.683594 147.105469 169.238281 150.5625 166.5 C 150.679688 166.40625 150.796875 166.316406 150.917969 166.21875 C 152.261719 165.15625 153.601562 164.089844 154.875 162.9375 C 155.195312 162.648438 155.515625 162.359375 155.835938 162.070312 C 155.992188 161.929688 156.152344 161.785156 156.3125 161.640625 C 156.667969 161.324219 157.027344 161.015625 157.394531 160.710938 C 157.945312 160.257812 157.945312 160.257812 158.4375 159.75 C 158.4375 159.625 158.4375 159.503906 158.4375 159.375 C 158.5625 159.375 158.683594 159.375 158.8125 159.375 C 159.125 159.125 159.125 159.125 159.375 158.8125 C 159.375 158.6875 159.375 158.566406 159.375 158.4375 C 159.5 158.4375 159.621094 158.4375 159.75 158.4375 C 160.039062 158.152344 160.039062 158.152344 160.335938 157.78125 C 160.8125 157.21875 161.300781 156.691406 161.824219 156.175781 C 162.816406 155.203125 162.816406 155.203125 163.6875 154.125 C 163.6875 154 163.6875 153.878906 163.6875 153.75 C 163.8125 153.75 163.933594 153.75 164.0625 153.75 C 164.351562 153.4375 164.351562 153.4375 164.648438 153.023438 C 165.125 152.394531 165.605469 151.773438 166.101562 151.160156 C 167.5625 149.332031 168.921875 147.449219 170.214844 145.5 C 170.289062 145.390625 170.359375 145.28125 170.433594 145.167969 C 172.296875 142.367188 174.039062 139.535156 175.5 136.5 C 175.613281 136.273438 175.730469 136.050781 175.847656 135.824219 C 179.808594 128.121094 182.394531 119.882812 183.9375 111.375 C 183.972656 111.1875 184.007812 110.996094 184.042969 110.804688 C 186.601562 96.363281 185.199219 81.601562 180.75 67.6875 C 180.660156 67.398438 180.660156 67.398438 180.566406 67.105469 C 180.132812 65.765625 179.613281 64.480469 179.0625 63.1875 C 178.914062 62.820312 178.761719 62.457031 178.613281 62.089844 C 177.777344 60.046875 176.917969 58.035156 175.890625 56.078125 C 175.664062 55.640625 175.4375 55.203125 175.214844 54.761719 C 173.683594 51.773438 172.039062 48.84375 170.0625 46.125 C 169.898438 45.890625 169.738281 45.65625 169.574219 45.425781 C 166.347656 40.777344 162.726562 36.5 158.71875 32.507812 C 158.398438 32.1875 158.082031 31.871094 157.765625 31.550781 C 156.050781 29.628906 156.050781 29.628906 153.9375 28.3125 C 153.9375 28.1875 153.9375 28.066406 153.9375 27.9375 C 153.667969 27.679688 153.667969 27.679688 153.304688 27.421875 C 153.105469 27.269531 153.105469 27.269531 152.898438 27.113281 C 152.753906 27.007812 152.609375 26.898438 152.460938 26.789062 C 152.164062 26.566406 151.867188 26.34375 151.574219 26.121094 C 151.429688 26.011719 151.285156 25.90625 151.136719 25.796875 C 150.683594 25.449219 150.242188 25.089844 149.800781 24.726562 C 148.550781 23.71875 147.207031 22.835938 145.875 21.9375 C 145.75 21.855469 145.625 21.769531 145.5 21.683594 C 144.792969 21.210938 144.085938 20.738281 143.378906 20.269531 C 143.085938 20.078125 142.796875 19.886719 142.507812 19.695312 C 141.476562 19.019531 140.425781 18.449219 139.316406 17.910156 C 138.753906 17.628906 138.222656 17.316406 137.683594 16.992188 C 136.273438 16.160156 134.804688 15.484375 133.3125 14.8125 C 133.058594 14.699219 133.058594 14.699219 132.800781 14.582031 C 130.742188 13.65625 128.683594 12.78125 126.542969 12.066406 C 125.992188 11.882812 125.457031 11.667969 124.921875 11.445312 C 123.882812 11.027344 122.824219 10.722656 121.746094 10.429688 C 121.542969 10.375 121.335938 10.316406 121.128906 10.261719 C 120.707031 10.144531 120.285156 10.03125 119.863281 9.914062 C 119.296875 9.761719 118.730469 9.605469 118.164062 9.449219 C 113.972656 8.300781 109.699219 7.5625 105.375 7.125 C 105.230469 7.109375 105.085938 7.09375 104.9375 7.078125 C 101.996094 6.773438 99.082031 6.683594 96.128906 6.691406 C 95.796875 6.691406 95.796875 6.691406 95.460938 6.691406 C 83.867188 6.71875 72.171875 8.878906 61.5 13.5 Z M 61.5 13.5 "/>
</g>
</svg>
